<svg version="1.1" xmlns="http://www.w3.org/2000/svg" style="display: block;" viewBox="0 0 2048 2048" width="1024" height="1024" preserveAspectRatio="none">
<path transform="translate(0,0)" fill="rgb(49,171,95)" d="M 1312.23 612.479 C 1316.59 612.119 1315.86 611.451 1318.36 613.477 C 1318.72 617.163 1315.65 648.766 1315.36 655.658 C 1313.54 699.253 1307.08 746.75 1305.62 789.972 C 1290.73 776.191 1276.07 761.463 1261.11 748.056 C 1247.21 763.047 1233.46 779.138 1219.32 793.614 C 1180.7 803.156 1137.85 818.933 1115.31 854.562 C 1102.14 875.388 1104.87 896.868 1104.95 920.658 C 1080.3 948.511 1055.41 976.155 1030.29 1003.59 C 1014.55 1021.13 993.615 1045.84 977.495 1062.21 L 851.04 925.521 C 808.57 973.057 764.586 1019.43 722.08 1066.97 C 717.379 1072.23 712.556 1077.89 707.727 1082.98 C 695.988 1072.04 684.31 1061.03 672.695 1049.96 C 660.599 1038.39 648.417 1026.92 636.148 1015.53 C 654.354 996.298 672.985 974.468 691.021 954.687 L 792.811 843.5 C 802.081 833.235 844.347 784.538 851.614 779.673 C 868.031 796.298 886.698 818.118 902.599 835.671 L 976.492 916.16 L 1102.02 777.552 C 1131.5 744.858 1160.49 710.596 1191.27 679.19 C 1182.01 668.794 1156.74 646.321 1145.54 635.269 C 1200.93 628.848 1256.9 619.255 1312.23 612.479 z"/>
<path transform="translate(0,0)" fill="rgb(17,131,72)" d="M 1312.23 612.479 C 1316.59 612.119 1315.86 611.451 1318.36 613.477 C 1318.72 617.163 1315.65 648.766 1315.36 655.658 C 1313.54 699.253 1307.08 746.75 1305.62 789.972 C 1290.73 776.191 1276.07 761.463 1261.11 748.056 C 1247.21 763.047 1233.46 779.138 1219.32 793.614 C 1180.7 803.156 1137.85 818.933 1115.31 854.562 C 1102.14 875.388 1104.87 896.868 1104.95 920.658 C 1080.3 948.511 1055.41 976.155 1030.29 1003.59 C 1014.55 1021.13 993.615 1045.84 977.495 1062.21 L 851.04 925.521 C 808.57 973.057 764.586 1019.43 722.08 1066.97 C 717.379 1072.23 712.556 1077.89 707.727 1082.98 C 695.988 1072.04 684.31 1061.03 672.695 1049.96 C 676.579 1039.73 829.914 875.727 851.277 851.533 C 892.792 897.58 934.691 943.28 976.967 988.629 C 1001.6 962.899 1029.78 929.65 1054.22 902.738 C 1115.4 835.832 1176.14 768.528 1236.44 700.828 L 1288.56 643.097 C 1294.36 636.724 1310.92 619.915 1314.24 613.588 L 1312.23 612.479 z"/>
<path transform="translate(0,0)" fill="rgb(49,171,95)" d="M 1254.37 812.337 C 1298.81 810.648 1345.26 816.854 1382.16 843.842 C 1409.33 863.706 1422.91 895.819 1398.17 924.698 C 1370.89 956.532 1324.85 966.046 1284.96 969.859 C 1238.47 971.064 1191.37 965.616 1153.79 936.727 C 1111.08 902.568 1124.74 858.908 1169.26 835.605 C 1199.88 819.576 1220.35 815.673 1254.37 812.337 z M 1260.02 845.758 C 1244.62 847.906 1216.81 851.828 1220.02 873.57 C 1223.62 898.008 1283.69 891.479 1291.61 904.618 C 1288.15 920.747 1245.38 911.47 1234.59 908.427 C 1232.11 907.714 1229.65 906.923 1227.22 906.054 C 1223.5 910.505 1219.52 914.995 1216.32 919.801 C 1229.89 925.731 1245.02 928.188 1259.71 929.376 C 1259.68 933.293 1259.06 937.865 1261.16 940.907 C 1264.15 942.276 1265.6 941.818 1268.87 941.502 C 1272.88 941.579 1276.76 941.609 1280.75 941.916 L 1281.06 929.694 C 1296 926.788 1326.76 922.218 1322.62 900.728 C 1318.09 877.26 1258.76 884.093 1250.59 870.939 C 1250.54 852.075 1296.29 863.72 1307.03 866.236 C 1311.53 861.005 1314.12 857.981 1317.97 852.219 C 1303.25 847.859 1297.13 846.383 1281.99 845.366 L 1281.9 831.678 C 1275.54 831.286 1270.78 830.928 1264.42 831.303 L 1260.8 832.447 C 1258.87 836.224 1259.87 841.082 1260.02 845.758 z"/>
<path transform="translate(0,0)" fill="rgb(46,52,59)" d="M 796.872 1241.37 C 813.336 1239.49 832.709 1244.36 845.825 1254.44 C 894.08 1291.52 876.839 1380.77 812.281 1386.71 C 790.93 1388.67 777.615 1384.4 760.997 1371.19 L 760.737 1402.25 C 760.465 1412.75 760.871 1424.3 761.025 1434.87 C 748.074 1433.74 733.049 1434.05 720.069 1434.88 C 720.971 1371.22 719.847 1307 720.453 1243.21 C 733.455 1243.18 746.104 1243.94 759.08 1243.21 L 758.969 1257.83 C 772.542 1246.64 779.333 1243.17 796.872 1241.37 z M 796.321 1352.51 C 843.712 1349.13 844.556 1281.36 796.856 1274.2 C 746.219 1280.32 748.9 1348.94 796.321 1352.51 z"/>
<path transform="translate(0,0)" fill="rgb(46,52,59)" d="M 395.791 1201.33 C 439.93 1202.04 488.955 1202.67 533.038 1201.65 C 532.708 1212.96 532.703 1224.69 532.551 1236.04 L 437.061 1235.92 L 437.103 1275.23 C 464.558 1274.73 496.514 1276.43 523.029 1274.9 L 523.014 1308.81 C 497.166 1307.35 465.212 1308.05 438.941 1308.11 C 438.429 1308.41 437.917 1308.7 437.405 1309 C 436.55 1321.3 436.994 1337.35 437.05 1349.99 C 470.143 1350.54 504.19 1350.14 537.314 1350.05 C 537.753 1360.49 537.27 1373.75 537.133 1384.44 L 443.376 1384.61 C 428.698 1384.56 409.517 1383.83 395.206 1384.68 C 396.263 1371.49 395.647 1349.91 395.652 1336.2 L 395.567 1246.45 C 395.538 1236.57 394.828 1209.2 395.791 1201.33 z"/>
<path transform="translate(0,0)" fill="rgb(46,52,59)" d="M 952.991 1241.35 C 987.485 1237.6 1020.83 1250.53 1033.45 1285.02 C 1038.39 1298.53 1038.66 1310.95 1038.42 1325.17 L 929.712 1325.09 C 938.813 1349.55 958.944 1357.1 983.98 1352.27 C 993.661 1350.4 997.662 1346.42 1005.57 1341.27 C 1008.83 1342.22 1009.53 1343.66 1012.22 1346.28 C 1018.08 1351.87 1023.88 1357.52 1029.62 1363.24 C 1002.35 1392.14 951.042 1394.64 919.202 1372.36 C 904.029 1361.91 893.743 1345.76 890.696 1327.59 C 882.953 1283.3 909.32 1248.73 952.991 1241.35 z M 929.956 1300.44 C 943.619 1300.62 957.285 1300.64 970.949 1300.51 C 979.923 1300.45 990.355 1300.64 999.204 1300.06 C 993.655 1280.26 981.574 1269.57 960.085 1272.19 C 941.247 1276.21 936.089 1282.74 929.956 1300.44 z"/>
<path transform="translate(0,0)" fill="rgb(46,52,59)" d="M 1500 1243.21 C 1512.62 1242.71 1529.69 1243.49 1542.95 1243.43 C 1553.46 1272.31 1569.92 1308 1582.02 1337.09 C 1595.23 1306.27 1607.65 1274.42 1620.79 1243.31 C 1631.64 1243.74 1649.64 1244.16 1660.35 1242.97 C 1644.16 1282.54 1626.79 1322.13 1610.95 1361.7 C 1604.86 1376.97 1598.53 1394.44 1590.29 1408.59 C 1570.19 1443.08 1533.25 1444.35 1501.77 1425.49 C 1506.19 1415.45 1510.35 1405.71 1515.44 1395.99 C 1537.89 1406.07 1548.01 1409.29 1561.45 1385.78 C 1554.96 1369.13 1546.34 1350.38 1539.22 1333.82 C 1526.3 1303.55 1513.23 1273.35 1500 1243.21 z"/>
<path transform="translate(0,0)" fill="rgb(41,106,179)" d="M 851.27 961.813 C 862.842 973.473 877.65 990.962 889.043 1003.54 C 913.285 1030.31 937.784 1056.85 962.535 1083.15 C 928.358 1084.05 890 1083.17 855.5 1083.13 C 817.767 1082.87 780.033 1082.84 742.299 1083.03 C 777.687 1042.77 815.343 1002.12 851.27 961.813 z"/>
<path transform="translate(0,0)" fill="rgb(46,52,59)" d="M 1140.45 1241.37 C 1154.55 1238.62 1177.2 1244.61 1188.08 1253.77 C 1209.69 1271.75 1206.46 1297.23 1207.27 1321.77 C 1207.92 1341.55 1205.6 1365.81 1207.72 1384.92 C 1194.31 1384.53 1180.27 1384.65 1166.8 1384.58 C 1166.3 1367.62 1166.14 1345.69 1166.93 1328.7 C 1168.37 1297.75 1161.05 1262.68 1120.04 1280.45 C 1098.62 1295.65 1104.15 1320.34 1103.72 1343.18 C 1103.46 1356.84 1103.93 1370.95 1104.05 1384.64 C 1093.43 1384.1 1074.17 1384.29 1063.68 1384.63 C 1062.82 1365.85 1063.43 1345.61 1063.56 1326.71 L 1063.93 1243.25 C 1076.38 1243.81 1089.49 1243.66 1102.01 1243.72 L 1102.05 1258.41 C 1115.93 1247.64 1122.73 1243.52 1140.45 1241.37 z"/>
<path transform="translate(0,0)" fill="rgb(41,106,179)" d="M 1410.79 1009.95 C 1412.18 1016.47 1411.5 1034.58 1410.03 1041.26 C 1406.24 1059.39 1391.56 1074.12 1376.5 1083.85 C 1312.56 1125.15 1177.23 1123 1132.69 1053.48 C 1126.28 1039.41 1127.4 1025.36 1127.96 1010.3 C 1132.75 1015.29 1137.83 1019.99 1143.18 1024.37 C 1184.72 1057.75 1245.34 1067.99 1297.32 1062.66 C 1336.41 1058.66 1385.34 1041.59 1410.79 1009.95 z"/>
<path transform="translate(0,0)" fill="rgb(41,106,179)" d="M 1410.64 939.829 C 1411.81 947.138 1411.59 963.786 1410.23 970.806 C 1407.04 987.321 1392.63 1002.6 1378.73 1011.55 C 1333.4 1040.76 1271.73 1046.25 1219.79 1035.56 C 1189.31 1029.28 1152.63 1013.64 1135.06 986.85 C 1125.98 970.444 1128.07 958.83 1128.05 940.191 C 1133.06 945.495 1138.63 951.022 1144.33 955.549 C 1209.69 1007.38 1356.57 1008.42 1410.64 939.829 z"/>
<path transform="translate(0,0)" fill="rgb(46,52,59)" d="M 1426.21 1241.38 C 1446.65 1238.62 1474.06 1244 1492.44 1253.87 C 1488.6 1260.92 1482.65 1275 1479.16 1282.59 C 1461.51 1274.04 1440.59 1267.28 1421.2 1274.11 C 1416.7 1275.69 1411.52 1280.9 1411.76 1285.98 C 1418.46 1301.42 1468.49 1297.05 1483.89 1312.32 C 1491.13 1318.25 1497.21 1325.82 1497.75 1335.95 C 1499.88 1375.53 1465.44 1385.27 1435.6 1387.02 C 1411.26 1386.97 1390.95 1383.58 1369.8 1371.45 C 1373.77 1362.01 1379.03 1351.36 1383.41 1341.97 C 1400.26 1349.87 1415.8 1355.69 1434.69 1355.55 C 1442.26 1355.49 1460.93 1353.22 1457.97 1341.95 C 1454.47 1328.61 1421.2 1329.27 1410.07 1325.48 C 1401.94 1322.72 1394.65 1321.93 1387.51 1316.32 C 1369.34 1304.21 1368.45 1279.19 1381.08 1262.45 C 1392.3 1247.59 1408.71 1243.88 1426.21 1241.38 z"/>
<path transform="translate(0,0)" fill="rgb(46,52,59)" d="M 1285.67 1241.36 C 1306.99 1237.72 1333.44 1245.04 1352.68 1254.2 C 1347.59 1263.79 1343.55 1271.8 1339 1281.71 C 1321.37 1274.03 1292.88 1265.35 1274.8 1277.56 C 1273.28 1278.59 1271.79 1282.92 1271.99 1284.79 C 1272.74 1293.26 1286.64 1296.18 1293.43 1297.39 C 1312.73 1300.74 1333 1301.73 1348.07 1315.86 C 1362.11 1329.03 1361.05 1353.38 1348.61 1367.28 C 1335.07 1382.4 1315.72 1386.12 1296.25 1386.95 C 1275.28 1387.24 1247.19 1382.86 1229.53 1370.87 C 1233.35 1361.32 1239.06 1352.99 1243.18 1342.04 C 1253.33 1346.74 1264.35 1351.39 1275.38 1353.58 C 1286.75 1355.84 1317.78 1359.17 1319.04 1342.26 C 1315.94 1332.83 1299.08 1330.98 1290.32 1329.64 C 1267.51 1326.16 1233.01 1318.9 1232.52 1289.44 C 1231.97 1256.69 1257.89 1245.6 1285.67 1241.36 z"/>
<path transform="translate(0,0)" fill="rgb(46,52,59)" d="M 549.752 1242.97 C 566.183 1243.2 579.637 1243.99 596.251 1243.41 C 604.131 1252.46 617.842 1273.59 624.886 1284.21 C 631 1274.41 648.069 1251.74 655.618 1243.57 C 670.392 1243.67 685.945 1243.9 700.627 1242.95 C 683.778 1263.88 664.359 1289.05 648.807 1311 C 657.234 1322.38 698.098 1374.69 701.241 1383.65 L 699.249 1384.37 C 685.099 1384.62 670.945 1384.6 656.795 1384.32 C 645.192 1369.82 635.241 1355.79 624.315 1340.82 C 615.886 1353.73 602.166 1371.87 592.862 1384.23 C 577.468 1384.46 562.071 1384.39 546.679 1384.02 C 552.836 1377.44 562.963 1363.22 568.496 1355.6 C 579.399 1340.59 589.688 1326.86 601.338 1312.34 C 584.889 1291.16 565.251 1264.73 549.752 1242.97 z"/>
<path transform="translate(0,0)" fill="rgb(41,106,179)" d="M 1104.6 959.756 C 1105.43 964.618 1104.94 977.003 1105.09 982.475 C 1106.15 1022.06 1097.39 1051.79 1126.73 1083.18 L 1016.58 1083 L 993.458 1083.06 C 1029.98 1041.48 1067.03 1000.38 1104.6 959.756 z"/>
</svg>